# xmcd CD database file
#
# Track frame offsets:
#	150
#	44202
#	85941
#	126646
#	162407
#	195844
#	242982
#	270505
#
# Disc length: 3985 seconds
#
# Revision: 0
# Processed by: cddbd v1.5.2PL0 Copyright (c) Steve Scherf et al.
# Submitted via: CDex 1.70beta2
#
DISCID=720f8f08
DTITLE=Phil woods and Lee Konitz - Play Woods
DYEAR=2003
DGENRE=Jazz
TTITLE0=Squire's Parlor
TTITLE1=Petite Chanson
TTITLE2=My Man Benny
TTITLE3=Summer Serenade
TTITLE4=Johnny Hodges
TTITLE5=Body and Soul
TTITLE6=Ah, Se Eu Pudesse
TTITLE7=Fotografia
EXTD=YEAR: 2003
EXTT0=
EXTT1=
EXTT2=
EXTT3=
EXTT4=
EXTT5=
EXTT6=
EXTT7=
PLAYORDER=
